<?xml version="1.0" encoding="UTF-8" standalone="no"?>
<svg
   version="1.0"
   width="100.000000pt"
   height="100.000000pt"
   viewBox="0 0 100.000000 100.000000"
   preserveAspectRatio="xMidYMid meet"
   id="svg1"
   sodipodi:docname="sg_logo_icon.svg"
   inkscape:version="1.4.2 (f4327f4, 2025-05-13)"
   xmlns:inkscape="http://www.inkscape.org/namespaces/inkscape"
   xmlns:sodipodi="http://sodipodi.sourceforge.net/DTD/sodipodi-0.dtd"
   xmlns="http://www.w3.org/2000/svg"
   xmlns:svg="http://www.w3.org/2000/svg">
  <defs
     id="defs1" />
  <sodipodi:namedview
     id="namedview1"
     pagecolor="#ffffff"
     bordercolor="#000000"
     borderopacity="0.25"
     inkscape:showpageshadow="2"
     inkscape:pageopacity="0.0"
     inkscape:pagecheckerboard="0"
     inkscape:deskcolor="#d1d1d1"
     inkscape:document-units="pt"
     inkscape:zoom="4.2797638"
     inkscape:cx="53.624455"
     inkscape:cy="65.307342"
     inkscape:window-width="1920"
     inkscape:window-height="1009"
     inkscape:window-x="-8"
     inkscape:window-y="-8"
     inkscape:window-maximized="1"
     inkscape:current-layer="svg1" />
  <rect
     style="fill:#ffffff;stroke-width:0.75;fill-opacity:0.80000001"
     id="rect1"
     width="101.46588"
     height="100.76491"
     x="-1.0514599"
     y="-0.35048664" />
  <g
     transform="matrix(0.09627674,0.02703312,0.02703312,-0.09627674,-11.654929,84.62181)"
     fill="#000000"
     stroke="none"
     id="g1"
     style="fill:#000000;fill-opacity:1">
    <path
       d="M 0,500 V 0 h 500 500 v 500 500 H 500 0 Z M 445,690 V 635 L 303,632 160,629 V 580 530 H 305 450 V 375 220 l -197,2 -198,3 v 55 55 l 138,3 137,3 v 34 34 l -142,3 -143,3 -3,168 -2,167 202,-2 203,-3 z m 475,5 v -54 l -132,-3 -133,-3 -3,-147 -3,-148 h 71 70 v 30 c 0,23 -4,30 -20,30 -17,0 -20,7 -20,50 v 50 h 80 80 V 370 C 910,252 908,240 891,230 870,219 601,216 563,226 l -23,6 v 259 259 h 190 190 z"
       id="path1"
       style="fill:#000000;fill-opacity:1" />
  </g>
</svg>
